<?xml version="1.0" encoding="UTF-8"?><svg id="Layer_2" xmlns="http://www.w3.org/2000/svg" viewBox="0 0 599.92 734.35"><g id="Layer_1-2"><g><path d="M288.07,.05c103.36-.37,182.91,30,243.9,101.67,39.46,46.36,61.11,100.32,66.81,161.39,7.39,79.2-22.09,147.37-61.05,212.56-52.37,87.63-115.08,167.29-191.27,235.64-34.98,31.38-59.36,30.5-94.44-1.47-41.93-38.22-79.13-80.84-115.07-124.64-7.34-8.94-6.76-14.47,2.26-21.89,27.36-22.5,54.18-45.65,80.78-69.04,5.19-4.57,16.95-8.29,10.28-17.95-7.44-10.78-16.62-4.36-24.62,1.6-28,20.85-56.27,41.34-83.93,62.63-8.3,6.39-12.69,5.76-18.79-2.78-29.89-41.87-30.1-41.73,11.06-71.68,7.27-5.29,14.65-10.44,21.89-15.77,4.05-2.99,10.71-5.54,6.01-12.08-4.12-5.74-9.69-9.82-17.56-4.74-16.45,10.61-33.49,20.34-49.49,31.58-9.97,7-15.29,5.23-21.08-4.9C18.17,397.92-6.42,332.7,1.48,259.39,9.98,180.59,44.72,115.18,105.89,64.56,161.72,18.37,226.78-1.18,288.07,.05Zm199.09,318.14c1.55,1.37,3.2,2.64,4.62,4.13,3.43,3.6-.99,12.8,6.62,12.33,6.66-.41,13.99-4.88,15.69-11.87,6.97-28.59,10.24-58.11-2.04-85.49-15.35-34.23-41.87-57.78-78.66-68.65-22.75-6.72-45.02-16.17-69.58-9.5-69.38,18.84-138.14,39.7-205.93,63.65-13.88,4.9-19.93,17.12-24.37,29.63-6.2,17.45-8.79,35.85-11.45,54.14-1.18,8.13,1.95,12.55,9.31,17.54,13.26,8.99,4.97,24.2,6.39,36.64,.99,8.65-5.3,8.43-11.71,7.87-4.71-.41-4.07,3.85-4.18,6.81-.48,12.84,2.17,24.99,14.25,31.47,35.91,19.25,73.24,35.69,111.48,49.53,21.5,7.78,44.59-9.84,46.07-31.74,.77-11.38,4.36-22.09,11.01-31.02,7.33-9.84,16.75-18.82,30.36-16.71,12.45,1.93,18.72,11.4,20.35,23.42,1.21,8.97,4.77,10.42,12.53,6.29,21-11.19,42.04-22.35,63.42-32.78,8.89-4.33,11.92-10.13,11.68-19.84-.31-12.95,3.78-25.17,12.3-35.18,10.89-12.79,23.14-12.76,31.98-.53-14.2-4.08-26.27-2.66-32.08,13.23-2.35,6.41-4.88,13.01-5.58,19.71-1,9.59-.66,20.34,10.72,23.73,12.1,3.61,18.07-4.98,22.87-14.68,6.76-13.63,3.1-28.05,3.94-42.13Zm-184.9,107.1c.12,9.79-.48,20.23,10.59,24.37,11.02,4.12,17.83-3.97,23.84-11.28,7.98-9.71,11.27-21.27,10.66-33.86-.38-7.82-2.99-14.9-10.41-18.23-8.41-3.77-15.31,.66-21.28,6.36-9.33,8.92-12.51,20.42-13.39,32.64Zm-181.17-80.29c2.4,4.79-2.76,14.62,6.99,14.21,6.49-.27,3.17-8.57,3.15-13.12-.02-5.67,3.1-15.3-5.26-15.49-7.73-.18-2.49,9.23-4.88,14.4Z"/><path d="M268.47,313.54c0-6.34-.04-12.69,0-19.03,.1-11.87,5.36-19.54,16.91-23.89,54.36-20.47,108.65-41.13,162.73-62.32,14.25-5.58,23.5-2.7,31.87,10.23,24.43,37.78,21.31,29.49-12.44,44.35-57.53,25.34-114.99,50.84-172.42,76.4-25.75,11.46-27.13,10.65-26.92-17.81,.02-2.64,0-5.29,0-7.93h.25Zm77.4-11.78c-1.57-11.98-3.4-23.94-4.6-35.95-.8-8-4.77-8.08-10.77-5.65-14.15,5.73-28.37,11.29-42.56,16.92-5.73,2.27-10.16,5.84-10.74,12.39-1.08,12.05-2.01,24.11-2.76,36.18-.65,10.5,3.99,13.34,13.53,9,16.77-7.63,33.63-15.04,50.4-22.66,4.3-1.95,9.05-3.86,7.51-10.23Zm6.59-37.85c1.71,12.71,3.04,21.55,4.04,30.42,.7,6.23,3.07,8.36,9.32,5.54,16.78-7.6,33.7-14.91,50.58-22.29,4.92-2.15,8.03-5.64,6.39-11.1-3.57-11.88-.28-25.62-8.94-35.89-2.42-2.87-7.01,.51-10.35,1.73-11.86,4.35-23.45,9.51-35.46,13.36-11.22,3.6-20.32,7.62-15.58,18.23Zm108.23-53.02c-9.93,6.03-25.62,3.03-29.84,15.14-4.3,12.32-1.55,28.28,5.03,38.04,5.61,8.31,17.14-4.48,26.45-6.42,3.03-.63,6.14-2.04,8.62-3.89,5.14-3.84,18.25-2.29,13.72-12.68-4.98-11.44-10.01-24.62-23.99-30.19Z"/><path d="M248.28,314.55c-.79,39.32-2.05,40.07-37.55,23.87-21.11-9.64-42.23-19.27-63.54-28.46-11.3-4.87-14.04-12.15-11.04-24,11.69-46.28,12.47-46.89,56.4-29.19,7.82,3.15,15.67,6.25,23.51,9.38q32.94,13.16,32.23,48.41Zm-8.74-1.01c-.19-32.46,3.14-28.74-27.46-41.2-9.8-3.99-19.57-8.06-29.39-11.97-28.41-11.33-27.96-11.17-37.08,18.57-4.39,14.32-.98,23.15,13.03,28.85,18.12,7.37,35.92,15.57,53.8,23.53,29.23,13.02,27.15,13.66,27.11-17.77Z"/><path d="M258.37,397.21c0,3.14,.29,6.31-.06,9.41-.58,5.14,2.24,13.5-7.06,12.37-7.18-.87-16.88-1.12-17.78-11.81-.74-8.84-.36-17.78-.28-26.67,.05-5.29,.05-11.92,7.68-10.57,6.54,1.15,15.86-.15,17.15,10.03,.72,5.66,.13,11.49,.13,17.25,.07,0,.15,0,.22,0Zm-6.15-1.94c-1.72-5.6,3.33-14.76-6.12-15.62-9.2-.84-6.39,7.95-6.37,13.02,.03,6.27-3,16.13,6.96,16.37,8.82,.21,3.46-9.11,5.53-13.77Z"/></g></g></svg>